<?xml version="1.0" encoding="UTF-8"?>
<!--
  Library backdrop — modern white bookshelf with colorful books,
  mixed orientations (upright + horizontal stacks), plants, and
  a few decorative objects. Tiles 480×720 horizontally so the
  shelf wall fills any viewport without obvious seams.
-->
<svg xmlns="http://www.w3.org/2000/svg" width="480" height="720" viewBox="0 0 480 720">
  <defs>
    <linearGradient id="spineL" x1="0" y1="0" x2="1" y2="0">
      <stop offset="0" stop-color="#000" stop-opacity="0.18"/>
      <stop offset="0.5" stop-color="#000" stop-opacity="0"/>
      <stop offset="1" stop-color="#000" stop-opacity="0.18"/>
    </linearGradient>
    <!-- Glass shelves: bright at the top, slightly cool/grey at the
         bottom — reads as a polished surface catching light. -->
    <linearGradient id="shelfGlass" x1="0" y1="0" x2="0" y2="1">
      <stop offset="0"   stop-color="#fdfbf6"/>
      <stop offset="0.45" stop-color="#f3efe6"/>
      <stop offset="1"   stop-color="#e2dcd0"/>
    </linearGradient>
    <!-- Vertical case columns: same idea horizontally, so the edge
         away from the lamp reads as rounded glass. -->
    <linearGradient id="columnGlass" x1="0" y1="0" x2="1" y2="0">
      <stop offset="0"   stop-color="#fdfbf6"/>
      <stop offset="0.5" stop-color="#ece8de"/>
      <stop offset="1"   stop-color="#d8d2c4"/>
    </linearGradient>
    <!-- Deep shadow that drops beneath each shelf so the books on
         the row below read as being in cast shadow. -->
    <linearGradient id="shelfDropShadow" x1="0" y1="0" x2="0" y2="1">
      <stop offset="0"   stop-color="#000" stop-opacity="0.40"/>
      <stop offset="0.45" stop-color="#000" stop-opacity="0.18"/>
      <stop offset="1"   stop-color="#000" stop-opacity="0"/>
    </linearGradient>
  </defs>

  <!-- back wall (warm off-white) -->
  <rect width="480" height="720" fill="#ece6dc"/>

  <!-- vertical case columns rendered as glass with a specular
       highlight on the inside edge -->
  <rect x="0"   y="0" width="6" height="720" fill="url(#columnGlass)"/>
  <rect x="0"   y="0" width="1" height="720" fill="#ffffff" opacity="0.7"/>
  <rect x="158" y="0" width="6" height="720" fill="url(#columnGlass)"/>
  <rect x="158" y="0" width="1" height="720" fill="#ffffff" opacity="0.6"/>
  <rect x="316" y="0" width="6" height="720" fill="url(#columnGlass)"/>
  <rect x="316" y="0" width="1" height="720" fill="#ffffff" opacity="0.6"/>
  <rect x="474" y="0" width="6" height="720" fill="url(#columnGlass)"/>
  <rect x="474" y="0" width="1" height="720" fill="#ffffff" opacity="0.7"/>

  <!-- ROW 1 — top shelf -->
  <g>
    <!-- Section A (x: 6-158) -->
    <rect x="10"  y="32" width="18" height="208" fill="#b53929"/>
    <rect x="28"  y="46" width="14" height="194" fill="#2c3e60"/>
    <rect x="42"  y="22" width="22" height="218" fill="#3a5a40"/>
    <rect x="64"  y="52" width="16" height="188" fill="#d4a437"/>
    <rect x="80"  y="28" width="20" height="212" fill="#ede5d2"/>
    <rect x="100" y="58" width="14" height="182" fill="#6b2424"/>
    <rect x="114" y="40" width="18" height="200" fill="#2d6b6b"/>
    <rect x="132" y="24" width="22" height="216" fill="#1a1a1a"/>
    <!-- horizontal stack -->
    <rect x="14"  y="208" width="64" height="14" fill="#d4c5a8"/>
    <rect x="14"  y="222" width="64" height="12" fill="#8b5a3c"/>

    <!-- Section B (x: 164-316) -->
    <rect x="168" y="36" width="20" height="204" fill="#2c3e60"/>
    <rect x="188" y="20" width="16" height="220" fill="#7a8a6c"/>
    <rect x="204" y="50" width="22" height="190" fill="#b53929"/>
    <rect x="226" y="30" width="18" height="210" fill="#d4a437"/>
    <rect x="244" y="48" width="20" height="192" fill="#ede5d2"/>
    <rect x="264" y="22" width="14" height="218" fill="#3a5a40"/>
    <rect x="278" y="42" width="22" height="198" fill="#1a1a1a"/>
    <rect x="300" y="30" width="14" height="210" fill="#6b2424"/>
    <!-- vase decorative -->
    <ellipse cx="195" cy="232" rx="14" ry="4" fill="#a89878" opacity="0.5"/>
    <path d="M 184 232 Q 184 218 188 215 Q 196 213 204 215 Q 206 218 206 232 Z" fill="#cfc2a8"/>
    <rect x="188" y="208" width="14" height="8" fill="#8a7a5c" opacity="0.4"/>

    <!-- Section C (x: 322-474) -->
    <rect x="326" y="44" width="20" height="196" fill="#3a5a40"/>
    <rect x="346" y="22" width="16" height="218" fill="#b53929"/>
    <rect x="362" y="34" width="22" height="206" fill="#2c3e60"/>
    <rect x="384" y="50" width="18" height="190" fill="#d4c5a8"/>
    <!-- plant -->
    <g transform="translate(420, 240)">
      <rect x="-12" y="-22" width="24" height="22" fill="#8b6b3c" rx="2"/>
      <ellipse cx="-4" cy="-30" rx="9" ry="14" fill="#4a6840" transform="rotate(-15 -4 -30)"/>
      <ellipse cx="6" cy="-32" rx="8" ry="13" fill="#5a7848" transform="rotate(20 6 -32)"/>
      <ellipse cx="-8" cy="-44" rx="7" ry="11" fill="#3a5a38"/>
      <ellipse cx="2" cy="-48" rx="9" ry="14" fill="#4a6840" transform="rotate(10 2 -48)"/>
    </g>
    <rect x="446" y="40" width="14" height="200" fill="#ede5d2"/>
    <rect x="460" y="56" width="14" height="184" fill="#1a1a1a"/>
  </g>

  <!-- Shelf 1 — glass surface + specular highlight + cast shadow -->
  <rect y="240" width="480" height="8" fill="url(#shelfGlass)"/>
  <rect y="240" width="480" height="1.5" fill="#ffffff" opacity="0.95"/>
  <rect y="248" width="480" height="3" fill="#000" opacity="0.30"/>
  <rect y="251" width="480" height="20" fill="url(#shelfDropShadow)"/>

  <!-- ROW 2 — middle shelf -->
  <g>
    <!-- Section A -->
    <rect x="10"  y="266" width="22" height="200" fill="#2c3e60"/>
    <rect x="32"  y="280" width="16" height="186" fill="#d4a437"/>
    <!-- horizontal stack on the left -->
    <rect x="52"  y="430" width="72" height="14" fill="#7a8a6c"/>
    <rect x="52"  y="416" width="58" height="14" fill="#b53929"/>
    <rect x="52"  y="402" width="68" height="14" fill="#ede5d2"/>
    <!-- upright books to the right of stack -->
    <rect x="60"  y="276" width="20" height="124" fill="#3a5a40"/>
    <rect x="80"  y="262" width="14" height="138" fill="#6b2424"/>
    <rect x="94"  y="284" width="22" height="116" fill="#1a1a1a"/>
    <rect x="116" y="270" width="18" height="130" fill="#2d6b6b"/>
    <rect x="134" y="280" width="20" height="120" fill="#d4c5a8"/>

    <!-- Section B -->
    <rect x="168" y="276" width="18" height="190" fill="#b53929"/>
    <rect x="186" y="260" width="20" height="206" fill="#2c3e60"/>
    <rect x="206" y="288" width="14" height="178" fill="#3a5a40"/>
    <rect x="220" y="264" width="22" height="202" fill="#ede5d2"/>
    <rect x="242" y="280" width="16" height="186" fill="#d4a437"/>
    <rect x="258" y="270" width="20" height="196" fill="#1a1a1a"/>
    <rect x="278" y="284" width="18" height="182" fill="#6b2424"/>
    <rect x="296" y="262" width="18" height="204" fill="#2d6b6b"/>

    <!-- Section C -->
    <rect x="326" y="290" width="20" height="176" fill="#7a8a6c"/>
    <rect x="346" y="266" width="14" height="200" fill="#ede5d2"/>
    <!-- horizontal stack -->
    <rect x="362" y="438" width="68" height="14" fill="#d4a437"/>
    <rect x="362" y="424" width="78" height="14" fill="#2c3e60"/>
    <rect x="362" y="410" width="64" height="14" fill="#8b5a3c"/>
    <!-- upright next to it -->
    <rect x="370" y="266" width="22" height="142" fill="#b53929"/>
    <rect x="392" y="280" width="14" height="128" fill="#3a5a40"/>
    <rect x="406" y="262" width="22" height="146" fill="#1a1a1a"/>
    <rect x="446" y="274" width="14" height="192" fill="#6b2424"/>
    <rect x="460" y="284" width="14" height="182" fill="#d4c5a8"/>
  </g>

  <!-- Shelf 2 — glass + highlight + cast shadow -->
  <rect y="466" width="480" height="8" fill="url(#shelfGlass)"/>
  <rect y="466" width="480" height="1.5" fill="#ffffff" opacity="0.95"/>
  <rect y="474" width="480" height="3" fill="#000" opacity="0.30"/>
  <rect y="477" width="480" height="20" fill="url(#shelfDropShadow)"/>

  <!-- ROW 3 — bottom shelf -->
  <g>
    <!-- Section A -->
    <rect x="10"  y="498" width="20" height="194" fill="#3a5a40"/>
    <rect x="30"  y="510" width="16" height="182" fill="#d4c5a8"/>
    <rect x="46"  y="490" width="22" height="202" fill="#b53929"/>
    <rect x="68"  y="514" width="18" height="178" fill="#ede5d2"/>
    <rect x="86"  y="500" width="20" height="192" fill="#1a1a1a"/>
    <rect x="106" y="522" width="14" height="170" fill="#2c3e60"/>
    <rect x="120" y="506" width="22" height="186" fill="#d4a437"/>
    <rect x="142" y="494" width="14" height="198" fill="#6b2424"/>

    <!-- Section B -->
    <rect x="168" y="510" width="14" height="182" fill="#2d6b6b"/>
    <rect x="182" y="494" width="22" height="198" fill="#7a8a6c"/>
    <!-- Small ceramic coin bank — abstract, no pig features; just
         a rounded vessel with a coin slot at top. Quietly says
         money without shouting it. -->
    <g transform="translate(220, 692)">
      <ellipse cx="14" cy="0" rx="22" ry="4" fill="#000" opacity="0.18"/>
      <path d="M -4 0 Q -4 -28 4 -36 Q 14 -42 24 -36 Q 32 -28 32 0 Z" fill="#e5d9c0"/>
      <path d="M -4 0 Q -4 -10 -2 -16 L 0 -16 Q -1 -8 -1 0 Z" fill="#000" opacity="0.10"/>
      <rect x="9" y="-39" width="10" height="2" rx="1" fill="#8a7a5c"/>
      <ellipse cx="14" cy="-36" rx="14" ry="2.5" fill="#000" opacity="0.12"/>
    </g>
    <!-- A small stack of coins next to the bank — three circles,
         muted gold. Same restraint logic. -->
    <g transform="translate(254, 690)">
      <ellipse cx="0" cy="0"  rx="6" ry="2"   fill="#a08240" opacity="0.85"/>
      <ellipse cx="0" cy="-4" rx="6" ry="2"   fill="#b8923c"/>
      <ellipse cx="0" cy="-8" rx="6" ry="2"   fill="#c89c40"/>
      <ellipse cx="0" cy="-12" rx="6" ry="2"  fill="#b8923c"/>
    </g>
    <rect x="268" y="510" width="14" height="182" fill="#b53929"/>
    <rect x="282" y="490" width="22" height="202" fill="#3a5a40"/>
    <rect x="304" y="520" width="10" height="172" fill="#d4a437"/>

    <!-- Section C -->
    <rect x="326" y="494" width="18" height="198" fill="#2c3e60"/>
    <rect x="344" y="514" width="22" height="178" fill="#ede5d2"/>
    <rect x="366" y="498" width="14" height="194" fill="#6b2424"/>
    <rect x="380" y="520" width="20" height="172" fill="#1a1a1a"/>
    <!-- plant 2 -->
    <g transform="translate(424, 692)">
      <rect x="-14" y="-18" width="28" height="18" fill="#8b6b3c" rx="2"/>
      <ellipse cx="-6" cy="-28" rx="8" ry="12" fill="#4a6840" transform="rotate(-18 -6 -28)"/>
      <ellipse cx="6" cy="-26" rx="7" ry="11" fill="#5a7848" transform="rotate(22 6 -26)"/>
      <ellipse cx="0" cy="-40" rx="9" ry="13" fill="#3a5a38"/>
      <ellipse cx="-10" cy="-38" rx="6" ry="10" fill="#4a6840" transform="rotate(-5 -10 -38)"/>
      <ellipse cx="10" cy="-42" rx="7" ry="12" fill="#5a7848" transform="rotate(12 10 -42)"/>
    </g>
    <rect x="450" y="508" width="14" height="184" fill="#d4c5a8"/>
    <rect x="464" y="494" width="14" height="198" fill="#b53929"/>
  </g>

  <!-- subtle vertical curve shading on every book spine -->
  <rect width="480" height="720" fill="url(#spineL)" opacity="0.14"/>
</svg>
